<svg width="10" height="14" viewBox="0 0 10 14" fill="none" xmlns="http://www.w3.org/2000/svg">
<path d="M9.5 5H4.75C4.61743 5.00013 4.49033 5.05285 4.39659 5.14659C4.30285 5.24033 4.25013 5.36743 4.25 5.5V6H3.5V0.75C3.4998 0.551149 3.42072 0.360498 3.28011 0.219889C3.1395 0.0792799 2.94885 0.000198554 2.75 0H0.75C0.551149 0.000198554 0.360498 0.0792799 0.219889 0.219889C0.0792799 0.360498 0.000198554 0.551149 0 0.75V8.25C0.000374288 8.53802 0.100042 8.8171 0.282202 9.04021C0.464362 9.26331 0.717874 9.41678 1 9.47475V13.75C1 13.8163 1.02634 13.8799 1.07322 13.9268C1.12011 13.9737 1.1837 14 1.25 14H8.25C8.29292 14 8.33512 13.989 8.37253 13.9679C8.40994 13.9469 8.44131 13.9166 8.46362 13.8799C8.48592 13.8432 8.49841 13.8014 8.49987 13.7586C8.50134 13.7157 8.49174 13.6731 8.472 13.635C7.80928 12.3588 7.47471 10.9378 7.4985 9.5H7.5C8.16282 9.49927 8.79828 9.23565 9.26696 8.76696C9.73565 8.29828 9.99927 7.66282 10 7V5.5C9.99987 5.36743 9.94715 5.24033 9.85341 5.14659C9.75967 5.05285 9.63257 5.00013 9.5 5ZM4.75 5.5H9.5V6H4.75V5.5ZM0.5 1.5H3V6H0.5V1.5ZM0.75 0.5H2.75C2.81628 0.500066 2.87983 0.526427 2.9267 0.573296C2.97357 0.620166 2.99993 0.683716 3 0.75V1H0.5V0.75C0.500066 0.683716 0.526427 0.620166 0.573296 0.573296C0.620166 0.526427 0.683716 0.500066 0.75 0.5ZM7.25725 11.8092C7.39935 12.3906 7.59753 12.9569 7.849 13.5H1.5V9.5H6.9935C6.98397 10.2778 7.07259 11.0537 7.25725 11.8092ZM9.5 7C9.49934 7.53023 9.28841 8.03855 8.91348 8.41348C8.53855 8.78841 8.03023 8.99934 7.5 9H1.25C1.05115 8.9998 0.860498 8.92072 0.719889 8.78011C0.57928 8.6395 0.500199 8.44885 0.5 8.25V6.5H9.5V7Z" fill="#E0BC66"/>
</svg>
