<svg width="18" height="12" viewBox="0 0 18 12" fill="none" xmlns="http://www.w3.org/2000/svg">
<path d="M4.90909 6.4C5.39455 6.4 5.86912 6.25924 6.27276 5.99553C6.67641 5.73181 6.99102 5.35698 7.1768 4.91844C7.36257 4.4799 7.41118 3.99734 7.31647 3.53178C7.22176 3.06623 6.98799 2.63859 6.64472 2.30294C6.30144 1.9673 5.86408 1.73872 5.38795 1.64612C4.91181 1.55351 4.41829 1.60104 3.96978 1.78269C3.52127 1.96434 3.13792 2.27195 2.86821 2.66663C2.5985 3.06131 2.45455 3.52532 2.45455 4C2.45455 4.63652 2.71315 5.24697 3.17347 5.69706C3.63378 6.14714 4.25811 6.4 4.90909 6.4ZM4.90909 3.2C5.07091 3.2 5.2291 3.24692 5.36365 3.33482C5.4982 3.42273 5.60307 3.54767 5.66499 3.69385C5.72692 3.84003 5.74312 4.00089 5.71155 4.15607C5.67998 4.31126 5.60206 4.4538 5.48763 4.56569C5.37321 4.67757 5.22742 4.75376 5.06871 4.78463C4.91 4.8155 4.74549 4.79965 4.59599 4.7391C4.44648 4.67855 4.3187 4.57602 4.2288 4.44446C4.13889 4.3129 4.09091 4.15823 4.09091 4C4.09091 3.78783 4.17711 3.58434 4.33055 3.43431C4.48399 3.28429 4.6921 3.2 4.90909 3.2ZM15.5455 1.6H9C8.783 1.6 8.5749 1.68429 8.42146 1.83431C8.26802 1.98434 8.18182 2.18783 8.18182 2.4V8H1V0.8C1 0.587827 0.913799 0.384344 0.76036 0.234315C0.606921 0.0842856 0.398813 0 0.681818 0C0.464823 0 0.393079 0.0842856 0.23964 0.234315C0.086201 0.384344 0 0.587827 0 0.8V11.2C0 11.4122 0.086201 11.6157 0.23964 11.7657C0.393079 11.9157 0.464823 12 0.681818 12C0.898813 12 0.606921 11.9157 0.76036 11.7657C0.913799 11.6157 1 11.4122 1 11.2V8.8H17V11.2C17 11.4122 17.0862 11.6157 17.2396 11.7657C17.3931 11.9157 17.6012 12 17.8182 12C18.0352 12 17.6069 11.9157 17.7604 11.7657C17.9138 11.6157 18 11.4122 18 11.2V4C18 3.36348 17.7414 2.75303 17.2811 2.30294C16.8208 1.85286 16.1964 1.6 15.5455 1.6ZM17 8H9V2.73178H16C16.217 2.73178 16.33 2.73178 16.7604 2.9661C17 3.53178 17 4 17 4.21217V8Z" fill="#F1CC74"/>
</svg>
