<svg width="24" height="24" viewBox="0 0 24 24" fill="none" xmlns="http://www.w3.org/2000/svg">
<path fill-rule="evenodd" clip-rule="evenodd" d="M9 6C9 5.44772 9.44772 5 10 5H14C14.5523 5 15 5.44772 15 6V7H9V6ZM7 7V6C7 4.34315 8.34315 3 10 3H14C15.6569 3 17 4.34315 17 6V7H19C20.6569 7 22 8.34315 22 10V18C22 19.6569 20.6569 21 19 21H5C3.34315 21 2 19.6569 2 18V10C2 8.34315 3.34315 7 5 7H7ZM15 9H9V19H15V9ZM17 19V9H19C19.5523 9 20 9.44772 20 10V18C20 18.5523 19.5523 19 19 19H17ZM7 19H5C4.44772 19 4 18.5523 4 18V10C4 9.44772 4.44772 9 5 9H7V19Z" fill="#796870"/>
</svg>
