<svg width="16" height="18" viewBox="0 0 16 18" fill="none" xmlns="http://www.w3.org/2000/svg">
<path d="M11.5789 13.6461C11.5257 13.6492 11.4754 13.6492 11.4221 13.6492C10.5611 13.6492 9.75036 13.296 9.14084 12.6519C8.53131 12.0079 8.19696 11.1513 8.19696 10.2415C8.19696 9.72254 8.30644 9.22232 8.5106 8.769C8.60233 8.56891 8.7118 8.37821 8.83904 8.2C8.61416 8.22502 8.39817 8.27504 8.18809 8.34382C6.80334 8.80652 5.80029 10.1727 5.80029 11.7891C5.80029 13.7837 7.33002 15.4 9.21777 15.4C10.2622 15.4 11.1943 14.906 11.8216 14.1276C11.9636 13.9494 12.0938 13.7555 12.2003 13.5492C11.9991 13.6023 11.792 13.6367 11.5789 13.6461ZM9.21777 14.8998C7.59336 14.8998 6.27371 13.5054 6.27371 11.7891C6.27371 10.5667 6.94241 9.50995 7.91291 9.00035C7.78864 9.39115 7.72355 9.80695 7.72355 10.2415C7.72355 12.3018 9.23256 13.99 11.144 14.1401C10.6291 14.6153 9.95452 14.8998 9.21777 14.8998Z" fill="#E0BC66"/>
<path d="M1.07471 6.92319H15.3339" stroke="#E0BC66" stroke-linecap="round" stroke-linejoin="round"/>
<path d="M11.4351 1V3.6328" stroke="#E0BC66" stroke-linecap="round" stroke-linejoin="round"/>
<path d="M4.97266 1V3.6328" stroke="#E0BC66" stroke-linecap="round" stroke-linejoin="round"/>
<path fill-rule="evenodd" clip-rule="evenodd" d="M11.5906 2.26336H4.81677C2.46742 2.26336 1 3.57211 1 5.97778V13.2175C1 15.661 2.46742 17 4.81677 17H11.5832C13.94 17 15.4 15.6837 15.4 13.278V5.97778C15.4074 3.57211 13.9474 2.26336 11.5906 2.26336Z" stroke="#E0BC66" stroke-linecap="round" stroke-linejoin="round"/>
</svg>
