<svg width="327" height="197" viewBox="0 0 327 197" fill="none" xmlns="http://www.w3.org/2000/svg">
<rect x="0.673828" y="0.791138" width="326.326" height="196.209" rx="16" fill="url(#paint0_linear_68_1081)"/>
<path d="M15.3979 135.416H16.8539V146.616H15.3979V135.416ZM20.696 138.616H22.056V139.896H22.152C22.344 139.416 22.5893 139.054 22.888 138.808C23.1867 138.563 23.56 138.44 24.008 138.44C24.0613 138.44 24.1413 138.451 24.248 138.472C24.3653 138.483 24.488 138.515 24.616 138.568C24.7547 138.611 24.888 138.675 25.016 138.76C25.1547 138.846 25.272 138.952 25.368 139.08L24.824 140.072C24.728 139.934 24.5733 139.784 24.36 139.624C24.1573 139.464 23.9333 139.384 23.688 139.384C23.5067 139.384 23.32 139.427 23.128 139.512C22.936 139.598 22.76 139.736 22.6 139.928C22.44 140.12 22.3067 140.371 22.2 140.68C22.104 140.979 22.056 141.347 22.056 141.784V146.616H20.696V138.616ZM27.3174 138.616H28.6774V146.616H27.3174V138.616ZM27.1254 136.088C27.1254 135.854 27.2107 135.651 27.3814 135.48C27.5521 135.31 27.7547 135.224 27.9894 135.224C28.2241 135.224 28.4267 135.31 28.5974 135.48C28.7681 135.651 28.8534 135.854 28.8534 136.088C28.8534 136.323 28.7681 136.526 28.5974 136.696C28.4267 136.867 28.2241 136.952 27.9894 136.952C27.7547 136.952 27.5521 136.867 27.3814 136.696C27.2107 136.526 27.1254 136.323 27.1254 136.088ZM36.8313 140.44H35.9193C35.9193 140.302 35.8819 140.152 35.8073 139.992C35.7326 139.832 35.6153 139.688 35.4553 139.56C35.2953 139.422 35.0979 139.31 34.8633 139.224C34.6286 139.128 34.3513 139.08 34.0313 139.08C33.7113 139.08 33.4446 139.128 33.2313 139.224C33.0179 139.31 32.8473 139.422 32.7193 139.56C32.5913 139.688 32.5006 139.832 32.4473 139.992C32.3939 140.142 32.3673 140.286 32.3673 140.424C32.3673 140.755 32.4846 141.011 32.7193 141.192C32.9646 141.374 33.2686 141.528 33.6313 141.656C33.9939 141.784 34.3833 141.907 34.7993 142.024C35.2259 142.142 35.6206 142.296 35.9833 142.488C36.3459 142.67 36.6446 142.915 36.8793 143.224C37.1246 143.534 37.2473 143.944 37.2473 144.456C37.2473 145.16 36.9966 145.731 36.4953 146.168C36.0046 146.595 35.2686 146.808 34.2873 146.808C33.7433 146.808 33.2633 146.744 32.8473 146.616C32.4419 146.478 32.0953 146.296 31.8073 146.072C31.5299 145.848 31.3219 145.598 31.1833 145.32C31.0446 145.032 30.9753 144.739 30.9753 144.44H32.0153C32.0153 144.568 32.0526 144.728 32.1273 144.92C32.2126 145.112 32.3459 145.304 32.5273 145.496C32.7193 145.678 32.9593 145.838 33.2473 145.976C33.5459 146.104 33.9086 146.168 34.3353 146.168C34.6766 146.168 34.9593 146.126 35.1833 146.04C35.4073 145.944 35.5833 145.832 35.7113 145.704C35.8393 145.566 35.9246 145.416 35.9673 145.256C36.0206 145.096 36.0473 144.942 36.0473 144.792C36.0473 144.44 35.9299 144.163 35.6953 143.96C35.4606 143.758 35.1673 143.592 34.8153 143.464C34.4633 143.326 34.0793 143.203 33.6633 143.096C33.2579 142.979 32.8793 142.83 32.5273 142.648C32.1753 142.467 31.8819 142.227 31.6473 141.928C31.4126 141.63 31.2953 141.224 31.2953 140.712C31.2953 140.339 31.3646 140.014 31.5033 139.736C31.6419 139.448 31.8286 139.208 32.0633 139.016C32.3086 138.824 32.5913 138.68 32.9113 138.584C33.2419 138.488 33.5939 138.44 33.9673 138.44C34.3619 138.44 34.7299 138.494 35.0713 138.6C35.4233 138.696 35.7273 138.835 35.9833 139.016C36.2499 139.187 36.4579 139.395 36.6073 139.64C36.7566 139.886 36.8313 140.152 36.8313 140.44ZM44.2085 135.416H45.6805L48.9765 144.712H49.0405L52.2245 135.416H52.9125L56.0325 144.76H56.0965L59.4085 135.416H60.1445L56.1765 146.616H55.2325L52.2725 137.864H52.1925L49.1365 146.616H48.1765L44.2085 135.416ZM64.8431 138.44C65.6218 138.44 66.2245 138.552 66.6511 138.776C67.0778 138.99 67.3871 139.272 67.5791 139.624C67.7818 139.976 67.8991 140.382 67.9311 140.84C67.9631 141.299 67.9791 141.768 67.9791 142.248V146.616H66.6831V145.832C66.3738 146.131 65.9791 146.371 65.4991 146.552C65.0191 146.723 64.5391 146.808 64.0591 146.808C63.6005 146.808 63.1951 146.728 62.8431 146.568C62.4911 146.408 62.1978 146.2 61.9631 145.944C61.7285 145.688 61.5525 145.4 61.4351 145.08C61.3178 144.76 61.2591 144.435 61.2591 144.104C61.2591 143.763 61.3231 143.422 61.4511 143.08C61.5791 142.739 61.7711 142.435 62.0271 142.168C62.2831 141.891 62.5978 141.667 62.9711 141.496C63.3445 141.326 63.7711 141.24 64.2511 141.24C64.7311 141.24 65.1845 141.336 65.6111 141.528C66.0485 141.71 66.4058 141.971 66.6831 142.312V141.624C66.6831 140.75 66.5498 140.099 66.2831 139.672C66.0271 139.246 65.5525 139.032 64.8591 139.032C64.5605 139.032 64.2991 139.07 64.0751 139.144C63.8511 139.219 63.6485 139.326 63.4671 139.464C63.2965 139.592 63.1365 139.758 62.9871 139.96C62.8378 140.152 62.6885 140.371 62.5391 140.616L61.7071 139.784C61.8565 139.624 62.0111 139.464 62.1711 139.304C62.3418 139.144 62.5445 139 62.7791 138.872C63.0245 138.744 63.3125 138.643 63.6431 138.568C63.9738 138.483 64.3738 138.44 64.8431 138.44ZM66.6831 143.448C66.6298 143.32 66.5498 143.171 66.4431 143C66.3471 142.83 66.2191 142.664 66.0591 142.504C65.8991 142.344 65.7071 142.211 65.4831 142.104C65.2591 141.987 64.9925 141.928 64.6831 141.928C64.3738 141.928 64.0911 141.992 63.8351 142.12C63.5791 142.238 63.3605 142.398 63.1791 142.6C63.0085 142.792 62.8751 143.022 62.7791 143.288C62.6831 143.555 62.6351 143.832 62.6351 144.12C62.6351 144.462 62.6938 144.76 62.8111 145.016C62.9391 145.262 63.0991 145.475 63.2911 145.656C63.4831 145.827 63.6965 145.955 63.9311 146.04C64.1658 146.126 64.3898 146.168 64.6031 146.168C64.8058 146.168 65.0085 146.131 65.2111 146.056C65.4245 145.982 65.6218 145.88 65.8031 145.752C65.9951 145.614 66.1658 145.454 66.3151 145.272C66.4645 145.091 66.5871 144.894 66.6831 144.68V143.448ZM69.7398 139.256V138.616H71.1318V136.152H72.4918V138.616H74.4278V139.256H72.4918V144.568C72.4918 144.696 72.4971 144.846 72.5078 145.016C72.5184 145.176 72.5504 145.331 72.6038 145.48C72.6571 145.619 72.7371 145.736 72.8438 145.832C72.9611 145.928 73.1211 145.976 73.3238 145.976C73.5798 145.976 73.7931 145.88 73.9638 145.688C74.1344 145.496 74.2731 145.288 74.3798 145.064L75.1318 145.832C74.6091 146.355 74.0171 146.616 73.3558 146.616C73.0784 146.616 72.8064 146.568 72.5398 146.472C72.2731 146.376 72.0331 146.232 71.8198 146.04C71.6171 145.838 71.4518 145.582 71.3238 145.272C71.1958 144.963 71.1318 144.6 71.1318 144.184V139.256H69.7398ZM81.6438 140.44H80.7318C80.7318 140.302 80.6944 140.152 80.6198 139.992C80.5451 139.832 80.4278 139.688 80.2678 139.56C80.1078 139.422 79.9104 139.31 79.6758 139.224C79.4411 139.128 79.1638 139.08 78.8438 139.08C78.5238 139.08 78.2571 139.128 78.0438 139.224C77.8304 139.31 77.6598 139.422 77.5318 139.56C77.4038 139.688 77.3131 139.832 77.2598 139.992C77.2064 140.142 77.1798 140.286 77.1798 140.424C77.1798 140.755 77.2971 141.011 77.5318 141.192C77.7771 141.374 78.0811 141.528 78.4438 141.656C78.8064 141.784 79.1958 141.907 79.6118 142.024C80.0384 142.142 80.4331 142.296 80.7958 142.488C81.1584 142.67 81.4571 142.915 81.6918 143.224C81.9371 143.534 82.0598 143.944 82.0598 144.456C82.0598 145.16 81.8091 145.731 81.3078 146.168C80.8171 146.595 80.0811 146.808 79.0998 146.808C78.5558 146.808 78.0758 146.744 77.6598 146.616C77.2544 146.478 76.9078 146.296 76.6198 146.072C76.3424 145.848 76.1344 145.598 75.9958 145.32C75.8571 145.032 75.7878 144.739 75.7878 144.44H76.8278C76.8278 144.568 76.8651 144.728 76.9398 144.92C77.0251 145.112 77.1584 145.304 77.3398 145.496C77.5318 145.678 77.7718 145.838 78.0598 145.976C78.3584 146.104 78.7211 146.168 79.1478 146.168C79.4891 146.168 79.7718 146.126 79.9958 146.04C80.2198 145.944 80.3958 145.832 80.5238 145.704C80.6518 145.566 80.7371 145.416 80.7798 145.256C80.8331 145.096 80.8598 144.942 80.8598 144.792C80.8598 144.44 80.7424 144.163 80.5078 143.96C80.2731 143.758 79.9798 143.592 79.6278 143.464C79.2758 143.326 78.8918 143.203 78.4758 143.096C78.0704 142.979 77.6918 142.83 77.3398 142.648C76.9878 142.467 76.6944 142.227 76.4598 141.928C76.2251 141.63 76.1078 141.224 76.1078 140.712C76.1078 140.339 76.1771 140.014 76.3158 139.736C76.4544 139.448 76.6411 139.208 76.8758 139.016C77.1211 138.824 77.4038 138.68 77.7238 138.584C78.0544 138.488 78.4064 138.44 78.7798 138.44C79.1744 138.44 79.5424 138.494 79.8838 138.6C80.2358 138.696 80.5398 138.835 80.7958 139.016C81.0624 139.187 81.2704 139.395 81.4198 139.64C81.5691 139.886 81.6438 140.152 81.6438 140.44ZM92.0353 142.632C92.0353 143.187 91.9393 143.72 91.7473 144.232C91.5553 144.734 91.2779 145.176 90.9153 145.56C90.5633 145.944 90.1313 146.248 89.6193 146.472C89.1179 146.696 88.5526 146.808 87.9233 146.808C87.2833 146.808 86.7019 146.696 86.1793 146.472C85.6673 146.238 85.2299 145.928 84.8673 145.544C84.5153 145.16 84.2379 144.718 84.0353 144.216C83.8433 143.704 83.7473 143.176 83.7473 142.632C83.7473 142.078 83.8433 141.55 84.0353 141.048C84.2379 140.536 84.5153 140.088 84.8673 139.704C85.2299 139.32 85.6673 139.016 86.1793 138.792C86.7019 138.558 87.2833 138.44 87.9233 138.44C88.5526 138.44 89.1179 138.558 89.6193 138.792C90.1313 139.016 90.5633 139.32 90.9153 139.704C91.2779 140.088 91.5553 140.536 91.7473 141.048C91.9393 141.55 92.0353 142.078 92.0353 142.632ZM90.5153 142.632C90.5153 141.886 90.4353 141.283 90.2753 140.824C90.1153 140.355 89.9073 139.992 89.6513 139.736C89.3953 139.48 89.1126 139.31 88.8033 139.224C88.4939 139.128 88.1953 139.08 87.9073 139.08C87.6193 139.08 87.3206 139.128 87.0113 139.224C86.7019 139.31 86.4139 139.48 86.1473 139.736C85.8913 139.992 85.6779 140.355 85.5073 140.824C85.3473 141.283 85.2673 141.886 85.2673 142.632C85.2673 143.368 85.3473 143.971 85.5073 144.44C85.6779 144.899 85.8913 145.256 86.1473 145.512C86.4139 145.768 86.7019 145.944 87.0113 146.04C87.3206 146.126 87.6193 146.168 87.9073 146.168C88.1953 146.168 88.4939 146.126 88.8033 146.04C89.1126 145.944 89.3953 145.768 89.6513 145.512C89.9073 145.256 90.1153 144.899 90.2753 144.44C90.4353 143.971 90.5153 143.368 90.5153 142.632ZM100.806 146.616H99.4459V141.352C99.4459 141.246 99.4352 141.075 99.4139 140.84C99.3926 140.606 99.3232 140.371 99.2059 140.136C99.0992 139.902 98.9232 139.699 98.6779 139.528C98.4326 139.347 98.0859 139.256 97.6379 139.256C97.3606 139.256 97.0886 139.304 96.8219 139.4C96.5659 139.496 96.3366 139.646 96.1339 139.848C95.9312 140.051 95.7712 140.302 95.6539 140.6C95.5366 140.899 95.4779 141.256 95.4779 141.672V146.616H94.1179V138.616H95.4779V139.64H95.5419L95.7979 139.384C96.1712 139.011 96.5499 138.76 96.9339 138.632C97.3179 138.494 97.6646 138.43 97.9739 138.44C98.6779 138.44 99.2219 138.563 99.6059 138.808C99.9899 139.043 100.267 139.326 100.438 139.656C100.619 139.976 100.726 140.307 100.758 140.648C100.79 140.979 100.806 141.24 100.806 141.432V146.616Z" fill="white"/>
<path d="M269.577 140.001C269.577 139.692 269.599 139.334 269.641 138.929C269.695 138.513 269.775 138.092 269.881 137.665C269.999 137.228 270.148 136.801 270.329 136.385C270.521 135.969 270.756 135.601 271.033 135.281C271.311 134.95 271.641 134.684 272.025 134.481C272.409 134.278 272.857 134.177 273.369 134.177C273.881 134.177 274.329 134.278 274.713 134.481C275.108 134.684 275.444 134.95 275.721 135.281C276.009 135.601 276.249 135.969 276.441 136.385C276.633 136.801 276.783 137.228 276.889 137.665C277.007 138.092 277.087 138.513 277.129 138.929C277.183 139.334 277.209 139.692 277.209 140.001C277.209 140.673 277.135 141.35 276.985 142.033C276.836 142.705 276.601 143.318 276.281 143.873C275.972 144.428 275.572 144.881 275.081 145.233C274.601 145.574 274.031 145.745 273.369 145.745C272.708 145.745 272.137 145.574 271.657 145.233C271.188 144.881 270.799 144.428 270.489 143.873C270.18 143.318 269.951 142.705 269.801 142.033C269.652 141.35 269.577 140.673 269.577 140.001ZM271.177 140.001C271.177 140.545 271.199 141.116 271.241 141.713C271.284 142.31 271.38 142.854 271.529 143.345C271.689 143.836 271.913 144.241 272.201 144.561C272.489 144.881 272.879 145.041 273.369 145.041C273.871 145.041 274.271 144.881 274.569 144.561C274.868 144.241 275.092 143.836 275.241 143.345C275.401 142.854 275.503 142.31 275.545 141.713C275.588 141.116 275.609 140.545 275.609 140.001C275.609 139.446 275.588 138.865 275.545 138.257C275.503 137.649 275.401 137.1 275.241 136.609C275.092 136.108 274.868 135.697 274.569 135.377C274.271 135.046 273.871 134.881 273.369 134.881C272.879 134.881 272.489 135.046 272.201 135.377C271.913 135.697 271.689 136.108 271.529 136.609C271.38 137.1 271.284 137.649 271.241 138.257C271.199 138.865 271.177 139.446 271.177 140.001ZM282.02 139.265C282.244 139.265 282.5 139.244 282.788 139.201C283.087 139.148 283.364 139.046 283.62 138.897C283.887 138.737 284.106 138.513 284.276 138.225C284.458 137.937 284.548 137.558 284.548 137.089C284.548 136.801 284.506 136.529 284.42 136.273C284.346 136.006 284.223 135.772 284.052 135.569C283.892 135.356 283.684 135.19 283.428 135.073C283.172 134.945 282.868 134.881 282.516 134.881C282.292 134.881 282.079 134.908 281.876 134.961C281.674 135.014 281.492 135.116 281.332 135.265C281.172 135.404 281.039 135.601 280.932 135.857C280.826 136.113 280.751 136.438 280.708 136.833H279.284C279.295 136.545 279.354 136.246 279.46 135.937C279.578 135.617 279.764 135.329 280.02 135.073C280.276 134.806 280.612 134.593 281.028 134.433C281.444 134.262 281.967 134.177 282.596 134.177C283.172 134.177 283.668 134.262 284.084 134.433C284.511 134.593 284.858 134.812 285.124 135.089C285.402 135.356 285.604 135.67 285.732 136.033C285.86 136.396 285.924 136.774 285.924 137.169C285.924 137.724 285.775 138.177 285.476 138.529C285.178 138.87 284.724 139.169 284.116 139.425L283.94 139.489V139.601L284.116 139.633C284.468 139.686 284.783 139.804 285.06 139.985C285.338 140.156 285.572 140.369 285.764 140.625C285.967 140.87 286.122 141.148 286.228 141.457C286.335 141.756 286.388 142.054 286.388 142.353C286.388 142.78 286.303 143.196 286.132 143.601C285.972 144.006 285.727 144.369 285.396 144.689C285.066 144.998 284.65 145.249 284.148 145.441C283.658 145.633 283.082 145.729 282.42 145.729C281.951 145.74 281.508 145.676 281.092 145.537C280.676 145.398 280.308 145.206 279.988 144.961C279.679 144.705 279.428 144.412 279.236 144.081C279.055 143.75 278.964 143.404 278.964 143.041H280.564C280.575 143.297 280.628 143.548 280.724 143.793C280.831 144.038 280.97 144.252 281.14 144.433C281.322 144.614 281.535 144.764 281.78 144.881C282.026 144.988 282.303 145.041 282.612 145.041C283.252 145.041 283.77 144.828 284.164 144.401C284.57 143.974 284.772 143.313 284.772 142.417C284.772 142.225 284.751 141.99 284.708 141.713C284.666 141.436 284.554 141.169 284.372 140.913C284.202 140.646 283.93 140.422 283.556 140.241C283.183 140.06 282.671 139.969 282.02 139.969V139.265ZM295.128 134.177L288.936 145.761H287.832L293.992 134.177H295.128ZM303.826 145.569H296.466L299.49 142.193C299.757 141.873 300.039 141.526 300.338 141.153C300.647 140.78 300.93 140.385 301.186 139.969C301.442 139.553 301.655 139.121 301.826 138.673C301.997 138.225 302.082 137.766 302.082 137.297C302.082 136.561 301.885 135.974 301.49 135.537C301.106 135.1 300.61 134.881 300.002 134.881C299.639 134.881 299.335 134.95 299.09 135.089C298.855 135.228 298.658 135.414 298.498 135.649C298.349 135.873 298.237 136.14 298.162 136.449C298.087 136.748 298.034 137.062 298.002 137.393H296.402C296.402 136.945 296.493 136.524 296.674 136.129C296.855 135.734 297.106 135.393 297.426 135.105C297.757 134.817 298.141 134.593 298.578 134.433C299.015 134.262 299.49 134.177 300.002 134.177C300.578 134.177 301.095 134.262 301.554 134.433C302.013 134.593 302.397 134.817 302.706 135.105C303.015 135.393 303.25 135.729 303.41 136.113C303.581 136.486 303.666 136.881 303.666 137.297C303.666 137.82 303.613 138.268 303.506 138.641C303.41 139.014 303.25 139.377 303.026 139.729C302.813 140.07 302.53 140.433 302.178 140.817C301.837 141.201 301.421 141.66 300.93 142.193L298.85 144.417H303.826V145.569ZM307.137 138.385C307.436 138.268 307.702 138.182 307.937 138.129C308.182 138.065 308.454 138.033 308.753 138.033C309.265 138.033 309.74 138.118 310.177 138.289C310.614 138.449 310.993 138.689 311.313 139.009C311.644 139.318 311.9 139.692 312.081 140.129C312.273 140.566 312.369 141.057 312.369 141.601C312.369 142.262 312.257 142.849 312.033 143.361C311.82 143.873 311.521 144.305 311.137 144.657C310.764 145.009 310.321 145.281 309.809 145.473C309.308 145.654 308.769 145.745 308.193 145.745C307.702 145.745 307.249 145.676 306.833 145.537C306.428 145.388 306.076 145.19 305.777 144.945C305.478 144.7 305.238 144.406 305.057 144.065C304.886 143.724 304.796 143.361 304.785 142.977H305.953C305.964 143.265 306.022 143.537 306.129 143.793C306.236 144.038 306.38 144.257 306.561 144.449C306.753 144.63 306.982 144.774 307.249 144.881C307.516 144.988 307.82 145.041 308.161 145.041C308.47 145.041 308.78 144.982 309.089 144.865C309.398 144.737 309.676 144.54 309.921 144.273C310.177 143.996 310.38 143.649 310.529 143.233C310.689 142.806 310.769 142.294 310.769 141.697C310.769 140.854 310.545 140.172 310.097 139.649C309.649 139.126 308.977 138.865 308.081 138.865C307.868 138.865 307.574 138.886 307.201 138.929C306.828 138.972 306.412 139.11 305.953 139.345L307.377 134.369H312.225L311.905 135.249H308.065L307.137 138.385Z" fill="white"/>
<path d="M21.9898 173.086H13.7098L17.1118 169.288C17.4118 168.928 17.7298 168.538 18.0658 168.118C18.4138 167.698 18.7318 167.254 19.0198 166.786C19.3078 166.318 19.5478 165.832 19.7398 165.328C19.9318 164.824 20.0278 164.308 20.0278 163.78C20.0278 162.952 19.8058 162.292 19.3618 161.8C18.9298 161.308 18.3718 161.062 17.6878 161.062C17.2798 161.062 16.9378 161.14 16.6618 161.296C16.3978 161.452 16.1758 161.662 15.9958 161.926C15.8278 162.178 15.7018 162.478 15.6178 162.826C15.5338 163.162 15.4738 163.516 15.4378 163.888H13.6378C13.6378 163.384 13.7398 162.91 13.9438 162.466C14.1478 162.022 14.4298 161.638 14.7898 161.314C15.1618 160.99 15.5938 160.738 16.0858 160.558C16.5778 160.366 17.1118 160.27 17.6878 160.27C18.3358 160.27 18.9178 160.366 19.4338 160.558C19.9498 160.738 20.3818 160.99 20.7298 161.314C21.0778 161.638 21.3418 162.016 21.5218 162.448C21.7138 162.868 21.8098 163.312 21.8098 163.78C21.8098 164.368 21.7498 164.872 21.6298 165.292C21.5218 165.712 21.3418 166.12 21.0898 166.516C20.8498 166.9 20.5318 167.308 20.1358 167.74C19.7518 168.172 19.2838 168.688 18.7318 169.288L16.3918 171.79H21.9898V173.086ZM27.8668 165.994C28.1188 165.994 28.4068 165.97 28.7308 165.922C29.0668 165.862 29.3788 165.748 29.6668 165.58C29.9668 165.4 30.2128 165.148 30.4048 164.824C30.6088 164.5 30.7108 164.074 30.7108 163.546C30.7108 163.222 30.6628 162.916 30.5668 162.628C30.4828 162.328 30.3448 162.064 30.1528 161.836C29.9728 161.596 29.7388 161.41 29.4508 161.278C29.1628 161.134 28.8208 161.062 28.4248 161.062C28.1728 161.062 27.9328 161.092 27.7048 161.152C27.4768 161.212 27.2728 161.326 27.0928 161.494C26.9128 161.65 26.7628 161.872 26.6428 162.16C26.5228 162.448 26.4388 162.814 26.3908 163.258H24.7888C24.8008 162.934 24.8668 162.598 24.9868 162.25C25.1188 161.89 25.3288 161.566 25.6168 161.278C25.9048 160.978 26.2828 160.738 26.7508 160.558C27.2188 160.366 27.8068 160.27 28.5148 160.27C29.1628 160.27 29.7208 160.366 30.1888 160.558C30.6688 160.738 31.0588 160.984 31.3588 161.296C31.6708 161.596 31.8988 161.95 32.0428 162.358C32.1868 162.766 32.2588 163.192 32.2588 163.636C32.2588 164.26 32.0908 164.77 31.7548 165.166C31.4188 165.55 30.9088 165.886 30.2248 166.174L30.0268 166.246V166.372L30.2248 166.408C30.6208 166.468 30.9748 166.6 31.2868 166.804C31.5988 166.996 31.8628 167.236 32.0788 167.524C32.3068 167.8 32.4808 168.112 32.6008 168.46C32.7208 168.796 32.7808 169.132 32.7808 169.468C32.7808 169.948 32.6848 170.416 32.4928 170.872C32.3128 171.328 32.0368 171.736 31.6648 172.096C31.2928 172.444 30.8248 172.726 30.2608 172.942C29.7088 173.158 29.0608 173.266 28.3168 173.266C27.7888 173.278 27.2908 173.206 26.8228 173.05C26.3548 172.894 25.9408 172.678 25.5808 172.402C25.2328 172.114 24.9508 171.784 24.7348 171.412C24.5308 171.04 24.4288 170.65 24.4288 170.242H26.2288C26.2408 170.53 26.3008 170.812 26.4088 171.088C26.5288 171.364 26.6848 171.604 26.8768 171.808C27.0808 172.012 27.3208 172.18 27.5968 172.312C27.8728 172.432 28.1848 172.492 28.5328 172.492C29.2528 172.492 29.8348 172.252 30.2788 171.772C30.7348 171.292 30.9628 170.548 30.9628 169.54C30.9628 169.324 30.9388 169.06 30.8908 168.748C30.8428 168.436 30.7168 168.136 30.5128 167.848C30.3208 167.548 30.0148 167.296 29.5948 167.092C29.1748 166.888 28.5988 166.786 27.8668 166.786V165.994ZM43.6847 162.394H42.1727C42.1007 161.974 41.9027 161.65 41.5787 161.422C41.2547 161.182 40.8647 161.062 40.4087 161.062C39.8087 161.062 39.3167 161.2 38.9327 161.476C38.5487 161.752 38.2487 162.142 38.0327 162.646C37.8167 163.138 37.6667 163.732 37.5827 164.428C37.5107 165.124 37.4747 165.892 37.4747 166.732H37.5467L37.7627 166.318C37.9667 165.91 38.2907 165.556 38.7347 165.256C39.1907 164.956 39.7907 164.806 40.5347 164.806C40.9787 164.806 41.4227 164.89 41.8667 165.058C42.3227 165.214 42.7307 165.46 43.0907 165.796C43.4507 166.132 43.7447 166.558 43.9727 167.074C44.2007 167.59 44.3147 168.208 44.3147 168.928C44.3147 169.528 44.2127 170.092 44.0087 170.62C43.8047 171.148 43.5227 171.61 43.1627 172.006C42.8027 172.402 42.3707 172.714 41.8667 172.942C41.3627 173.17 40.8047 173.284 40.1927 173.284C39.3047 173.284 38.5787 173.086 38.0147 172.69C37.4627 172.294 37.0307 171.784 36.7187 171.16C36.4187 170.536 36.2147 169.84 36.1067 169.072C35.9987 168.292 35.9447 167.518 35.9447 166.75C35.9447 165.934 36.0227 165.136 36.1787 164.356C36.3467 163.576 36.6107 162.886 36.9707 162.286C37.3427 161.674 37.8167 161.188 38.3927 160.828C38.9687 160.456 39.6707 160.27 40.4987 160.27C40.8947 160.27 41.2727 160.312 41.6327 160.396C41.9927 160.48 42.3167 160.606 42.6047 160.774C42.8927 160.942 43.1327 161.164 43.3247 161.44C43.5167 161.704 43.6367 162.022 43.6847 162.394ZM37.6547 169.054C37.6547 169.666 37.7327 170.188 37.8887 170.62C38.0447 171.052 38.2427 171.412 38.4827 171.7C38.7227 171.976 38.9927 172.18 39.2927 172.312C39.6047 172.432 39.9047 172.492 40.1927 172.492C40.4207 172.492 40.6727 172.45 40.9487 172.366C41.2367 172.282 41.5067 172.114 41.7587 171.862C42.0107 171.61 42.2207 171.262 42.3887 170.818C42.5567 170.362 42.6407 169.774 42.6407 169.054C42.6407 168.394 42.5627 167.842 42.4067 167.398C42.2627 166.954 42.0707 166.6 41.8307 166.336C41.5907 166.072 41.3267 165.886 41.0387 165.778C40.7507 165.67 40.4747 165.616 40.2107 165.616C39.9107 165.616 39.6107 165.682 39.3107 165.814C39.0107 165.934 38.7347 166.132 38.4827 166.408C38.2427 166.672 38.0447 167.026 37.8887 167.47C37.7327 167.902 37.6547 168.43 37.6547 169.054ZM49.58 165.004C49.916 164.872 50.216 164.776 50.48 164.716C50.756 164.644 51.062 164.608 51.398 164.608C51.974 164.608 52.508 164.704 53 164.896C53.492 165.076 53.918 165.346 54.278 165.706C54.65 166.054 54.938 166.474 55.142 166.966C55.358 167.458 55.466 168.01 55.466 168.622C55.466 169.366 55.34 170.026 55.088 170.602C54.848 171.178 54.512 171.664 54.08 172.06C53.66 172.456 53.162 172.762 52.586 172.978C52.022 173.182 51.416 173.284 50.768 173.284C50.216 173.284 49.706 173.206 49.238 173.05C48.782 172.882 48.386 172.66 48.05 172.384C47.714 172.108 47.444 171.778 47.24 171.394C47.048 171.01 46.946 170.602 46.934 170.17H48.248C48.26 170.494 48.326 170.8 48.446 171.088C48.566 171.364 48.728 171.61 48.932 171.826C49.148 172.03 49.406 172.192 49.706 172.312C50.006 172.432 50.348 172.492 50.732 172.492C51.08 172.492 51.428 172.426 51.776 172.294C52.124 172.15 52.436 171.928 52.712 171.628C53 171.316 53.228 170.926 53.396 170.458C53.576 169.978 53.666 169.402 53.666 168.73C53.666 167.782 53.414 167.014 52.91 166.426C52.406 165.838 51.65 165.544 50.642 165.544C50.402 165.544 50.072 165.568 49.652 165.616C49.232 165.664 48.764 165.82 48.248 166.084L49.85 160.486H55.304L54.944 161.476H50.624L49.58 165.004ZM69.1852 165.994C69.4372 165.994 69.7252 165.97 70.0492 165.922C70.3852 165.862 70.6972 165.748 70.9852 165.58C71.2852 165.4 71.5312 165.148 71.7232 164.824C71.9272 164.5 72.0292 164.074 72.0292 163.546C72.0292 163.222 71.9812 162.916 71.8852 162.628C71.8012 162.328 71.6632 162.064 71.4712 161.836C71.2912 161.596 71.0572 161.41 70.7692 161.278C70.4812 161.134 70.1392 161.062 69.7432 161.062C69.4912 161.062 69.2512 161.092 69.0232 161.152C68.7952 161.212 68.5912 161.326 68.4112 161.494C68.2312 161.65 68.0812 161.872 67.9612 162.16C67.8412 162.448 67.7572 162.814 67.7092 163.258H66.1072C66.1192 162.934 66.1852 162.598 66.3052 162.25C66.4372 161.89 66.6472 161.566 66.9352 161.278C67.2232 160.978 67.6012 160.738 68.0692 160.558C68.5372 160.366 69.1252 160.27 69.8332 160.27C70.4812 160.27 71.0392 160.366 71.5072 160.558C71.9872 160.738 72.3772 160.984 72.6772 161.296C72.9892 161.596 73.2172 161.95 73.3612 162.358C73.5052 162.766 73.5772 163.192 73.5772 163.636C73.5772 164.26 73.4092 164.77 73.0732 165.166C72.7372 165.55 72.2272 165.886 71.5432 166.174L71.3452 166.246V166.372L71.5432 166.408C71.9392 166.468 72.2932 166.6 72.6052 166.804C72.9172 166.996 73.1812 167.236 73.3972 167.524C73.6252 167.8 73.7992 168.112 73.9192 168.46C74.0392 168.796 74.0992 169.132 74.0992 169.468C74.0992 169.948 74.0032 170.416 73.8112 170.872C73.6312 171.328 73.3552 171.736 72.9832 172.096C72.6112 172.444 72.1432 172.726 71.5792 172.942C71.0272 173.158 70.3792 173.266 69.6352 173.266C69.1072 173.278 68.6092 173.206 68.1412 173.05C67.6732 172.894 67.2592 172.678 66.8992 172.402C66.5512 172.114 66.2692 171.784 66.0532 171.412C65.8492 171.04 65.7472 170.65 65.7472 170.242H67.5472C67.5592 170.53 67.6192 170.812 67.7272 171.088C67.8472 171.364 68.0032 171.604 68.1952 171.808C68.3992 172.012 68.6392 172.18 68.9152 172.312C69.1912 172.432 69.5032 172.492 69.8512 172.492C70.5712 172.492 71.1532 172.252 71.5972 171.772C72.0532 171.292 72.2812 170.548 72.2812 169.54C72.2812 169.324 72.2572 169.06 72.2092 168.748C72.1612 168.436 72.0352 168.136 71.8312 167.848C71.6392 167.548 71.3332 167.296 70.9132 167.092C70.4932 166.888 69.9172 166.786 69.1852 166.786V165.994ZM85.0031 162.394H83.4911C83.4191 161.974 83.2211 161.65 82.8971 161.422C82.5731 161.182 82.1831 161.062 81.7271 161.062C81.1271 161.062 80.6351 161.2 80.2511 161.476C79.8671 161.752 79.5671 162.142 79.3511 162.646C79.1351 163.138 78.9851 163.732 78.9011 164.428C78.8291 165.124 78.7931 165.892 78.7931 166.732H78.8651L79.0811 166.318C79.2851 165.91 79.6091 165.556 80.0531 165.256C80.5091 164.956 81.1091 164.806 81.8531 164.806C82.2971 164.806 82.7411 164.89 83.1851 165.058C83.6411 165.214 84.0491 165.46 84.4091 165.796C84.7691 166.132 85.0631 166.558 85.2911 167.074C85.5191 167.59 85.6331 168.208 85.6331 168.928C85.6331 169.528 85.5311 170.092 85.3271 170.62C85.1231 171.148 84.8411 171.61 84.4811 172.006C84.1211 172.402 83.6891 172.714 83.1851 172.942C82.6811 173.17 82.1231 173.284 81.5111 173.284C80.6231 173.284 79.8971 173.086 79.3331 172.69C78.7811 172.294 78.3491 171.784 78.0371 171.16C77.7371 170.536 77.5331 169.84 77.4251 169.072C77.3171 168.292 77.2631 167.518 77.2631 166.75C77.2631 165.934 77.3411 165.136 77.4971 164.356C77.6651 163.576 77.9291 162.886 78.2891 162.286C78.6611 161.674 79.1351 161.188 79.7111 160.828C80.2871 160.456 80.9891 160.27 81.8171 160.27C82.2131 160.27 82.5911 160.312 82.9511 160.396C83.3111 160.48 83.6351 160.606 83.9231 160.774C84.2111 160.942 84.4511 161.164 84.6431 161.44C84.8351 161.704 84.9551 162.022 85.0031 162.394ZM78.9731 169.054C78.9731 169.666 79.0511 170.188 79.2071 170.62C79.3631 171.052 79.5611 171.412 79.8011 171.7C80.0411 171.976 80.3111 172.18 80.6111 172.312C80.9231 172.432 81.2231 172.492 81.5111 172.492C81.7391 172.492 81.9911 172.45 82.2671 172.366C82.5551 172.282 82.8251 172.114 83.0771 171.862C83.3291 171.61 83.5391 171.262 83.7071 170.818C83.8751 170.362 83.9591 169.774 83.9591 169.054C83.9591 168.394 83.8811 167.842 83.7251 167.398C83.5811 166.954 83.3891 166.6 83.1491 166.336C82.9091 166.072 82.6451 165.886 82.3571 165.778C82.0691 165.67 81.7931 165.616 81.5291 165.616C81.2291 165.616 80.9291 165.682 80.6291 165.814C80.3291 165.934 80.0531 166.132 79.8011 166.408C79.5611 166.672 79.3631 167.026 79.2071 167.47C79.0511 167.902 78.9731 168.43 78.9731 169.054ZM90.8984 165.004C91.2344 164.872 91.5344 164.776 91.7984 164.716C92.0744 164.644 92.3804 164.608 92.7164 164.608C93.2924 164.608 93.8264 164.704 94.3184 164.896C94.8104 165.076 95.2364 165.346 95.5964 165.706C95.9684 166.054 96.2564 166.474 96.4604 166.966C96.6764 167.458 96.7844 168.01 96.7844 168.622C96.7844 169.366 96.6584 170.026 96.4064 170.602C96.1664 171.178 95.8304 171.664 95.3984 172.06C94.9784 172.456 94.4804 172.762 93.9044 172.978C93.3404 173.182 92.7344 173.284 92.0864 173.284C91.5344 173.284 91.0244 173.206 90.5564 173.05C90.1004 172.882 89.7044 172.66 89.3684 172.384C89.0324 172.108 88.7624 171.778 88.5584 171.394C88.3664 171.01 88.2644 170.602 88.2524 170.17H89.5664C89.5784 170.494 89.6444 170.8 89.7644 171.088C89.8844 171.364 90.0464 171.61 90.2504 171.826C90.4664 172.03 90.7244 172.192 91.0244 172.312C91.3244 172.432 91.6664 172.492 92.0504 172.492C92.3984 172.492 92.7464 172.426 93.0944 172.294C93.4424 172.15 93.7544 171.928 94.0304 171.628C94.3184 171.316 94.5464 170.926 94.7144 170.458C94.8944 169.978 94.9844 169.402 94.9844 168.73C94.9844 167.782 94.7324 167.014 94.2284 166.426C93.7244 165.838 92.9684 165.544 91.9604 165.544C91.7204 165.544 91.3904 165.568 90.9704 165.616C90.5504 165.664 90.0824 165.82 89.5664 166.084L91.1684 160.486H96.6224L96.2624 161.476H91.9424L90.8984 165.004ZM106.289 169.108H107.999V170.062H106.289V173.086H104.831V170.062H99.4126L105.623 160.486H106.289V169.108ZM100.817 169.108H104.831V162.898L100.817 169.108ZM126.261 173.086H117.981L121.383 169.288C121.683 168.928 122.001 168.538 122.337 168.118C122.685 167.698 123.003 167.254 123.291 166.786C123.579 166.318 123.819 165.832 124.011 165.328C124.203 164.824 124.299 164.308 124.299 163.78C124.299 162.952 124.077 162.292 123.633 161.8C123.201 161.308 122.643 161.062 121.959 161.062C121.551 161.062 121.209 161.14 120.933 161.296C120.669 161.452 120.447 161.662 120.267 161.926C120.099 162.178 119.973 162.478 119.889 162.826C119.805 163.162 119.745 163.516 119.709 163.888H117.909C117.909 163.384 118.011 162.91 118.215 162.466C118.419 162.022 118.701 161.638 119.061 161.314C119.433 160.99 119.865 160.738 120.357 160.558C120.849 160.366 121.383 160.27 121.959 160.27C122.607 160.27 123.189 160.366 123.705 160.558C124.221 160.738 124.653 160.99 125.001 161.314C125.349 161.638 125.613 162.016 125.793 162.448C125.985 162.868 126.081 163.312 126.081 163.78C126.081 164.368 126.021 164.872 125.901 165.292C125.793 165.712 125.613 166.12 125.361 166.516C125.121 166.9 124.803 167.308 124.407 167.74C124.023 168.172 123.555 168.688 123.003 169.288L120.663 171.79H126.261V173.086ZM132.138 165.994C132.39 165.994 132.678 165.97 133.002 165.922C133.338 165.862 133.65 165.748 133.938 165.58C134.238 165.4 134.484 165.148 134.676 164.824C134.88 164.5 134.982 164.074 134.982 163.546C134.982 163.222 134.934 162.916 134.838 162.628C134.754 162.328 134.616 162.064 134.424 161.836C134.244 161.596 134.01 161.41 133.722 161.278C133.434 161.134 133.092 161.062 132.696 161.062C132.444 161.062 132.204 161.092 131.976 161.152C131.748 161.212 131.544 161.326 131.364 161.494C131.184 161.65 131.034 161.872 130.914 162.16C130.794 162.448 130.71 162.814 130.662 163.258H129.06C129.072 162.934 129.138 162.598 129.258 162.25C129.39 161.89 129.6 161.566 129.888 161.278C130.176 160.978 130.554 160.738 131.022 160.558C131.49 160.366 132.078 160.27 132.786 160.27C133.434 160.27 133.992 160.366 134.46 160.558C134.94 160.738 135.33 160.984 135.63 161.296C135.942 161.596 136.17 161.95 136.314 162.358C136.458 162.766 136.53 163.192 136.53 163.636C136.53 164.26 136.362 164.77 136.026 165.166C135.69 165.55 135.18 165.886 134.496 166.174L134.298 166.246V166.372L134.496 166.408C134.892 166.468 135.246 166.6 135.558 166.804C135.87 166.996 136.134 167.236 136.35 167.524C136.578 167.8 136.752 168.112 136.872 168.46C136.992 168.796 137.052 169.132 137.052 169.468C137.052 169.948 136.956 170.416 136.764 170.872C136.584 171.328 136.308 171.736 135.936 172.096C135.564 172.444 135.096 172.726 134.532 172.942C133.98 173.158 133.332 173.266 132.588 173.266C132.06 173.278 131.562 173.206 131.094 173.05C130.626 172.894 130.212 172.678 129.852 172.402C129.504 172.114 129.222 171.784 129.006 171.412C128.802 171.04 128.7 170.65 128.7 170.242H130.5C130.512 170.53 130.572 170.812 130.68 171.088C130.8 171.364 130.956 171.604 131.148 171.808C131.352 172.012 131.592 172.18 131.868 172.312C132.144 172.432 132.456 172.492 132.804 172.492C133.524 172.492 134.106 172.252 134.55 171.772C135.006 171.292 135.234 170.548 135.234 169.54C135.234 169.324 135.21 169.06 135.162 168.748C135.114 168.436 134.988 168.136 134.784 167.848C134.592 167.548 134.286 167.296 133.866 167.092C133.446 166.888 132.87 166.786 132.138 166.786V165.994ZM147.956 162.394H146.444C146.372 161.974 146.174 161.65 145.85 161.422C145.526 161.182 145.136 161.062 144.68 161.062C144.08 161.062 143.588 161.2 143.204 161.476C142.82 161.752 142.52 162.142 142.304 162.646C142.088 163.138 141.938 163.732 141.854 164.428C141.782 165.124 141.746 165.892 141.746 166.732H141.818L142.034 166.318C142.238 165.91 142.562 165.556 143.006 165.256C143.462 164.956 144.062 164.806 144.806 164.806C145.25 164.806 145.694 164.89 146.138 165.058C146.594 165.214 147.002 165.46 147.362 165.796C147.722 166.132 148.016 166.558 148.244 167.074C148.472 167.59 148.586 168.208 148.586 168.928C148.586 169.528 148.484 170.092 148.28 170.62C148.076 171.148 147.794 171.61 147.434 172.006C147.074 172.402 146.642 172.714 146.138 172.942C145.634 173.17 145.076 173.284 144.464 173.284C143.576 173.284 142.85 173.086 142.286 172.69C141.734 172.294 141.302 171.784 140.99 171.16C140.69 170.536 140.486 169.84 140.378 169.072C140.27 168.292 140.216 167.518 140.216 166.75C140.216 165.934 140.294 165.136 140.45 164.356C140.618 163.576 140.882 162.886 141.242 162.286C141.614 161.674 142.088 161.188 142.664 160.828C143.24 160.456 143.942 160.27 144.77 160.27C145.166 160.27 145.544 160.312 145.904 160.396C146.264 160.48 146.588 160.606 146.876 160.774C147.164 160.942 147.404 161.164 147.596 161.44C147.788 161.704 147.908 162.022 147.956 162.394ZM141.926 169.054C141.926 169.666 142.004 170.188 142.16 170.62C142.316 171.052 142.514 171.412 142.754 171.7C142.994 171.976 143.264 172.18 143.564 172.312C143.876 172.432 144.176 172.492 144.464 172.492C144.692 172.492 144.944 172.45 145.22 172.366C145.508 172.282 145.778 172.114 146.03 171.862C146.282 171.61 146.492 171.262 146.66 170.818C146.828 170.362 146.912 169.774 146.912 169.054C146.912 168.394 146.834 167.842 146.678 167.398C146.534 166.954 146.342 166.6 146.102 166.336C145.862 166.072 145.598 165.886 145.31 165.778C145.022 165.67 144.746 165.616 144.482 165.616C144.182 165.616 143.882 165.682 143.582 165.814C143.282 165.934 143.006 166.132 142.754 166.408C142.514 166.672 142.316 167.026 142.16 167.47C142.004 167.902 141.926 168.43 141.926 169.054ZM153.852 165.004C154.188 164.872 154.488 164.776 154.752 164.716C155.028 164.644 155.334 164.608 155.67 164.608C156.246 164.608 156.78 164.704 157.272 164.896C157.764 165.076 158.19 165.346 158.55 165.706C158.922 166.054 159.21 166.474 159.414 166.966C159.63 167.458 159.738 168.01 159.738 168.622C159.738 169.366 159.612 170.026 159.36 170.602C159.12 171.178 158.784 171.664 158.352 172.06C157.932 172.456 157.434 172.762 156.858 172.978C156.294 173.182 155.688 173.284 155.04 173.284C154.488 173.284 153.978 173.206 153.51 173.05C153.054 172.882 152.658 172.66 152.322 172.384C151.986 172.108 151.716 171.778 151.512 171.394C151.32 171.01 151.218 170.602 151.206 170.17H152.52C152.532 170.494 152.598 170.8 152.718 171.088C152.838 171.364 153 171.61 153.204 171.826C153.42 172.03 153.678 172.192 153.978 172.312C154.278 172.432 154.62 172.492 155.004 172.492C155.352 172.492 155.7 172.426 156.048 172.294C156.396 172.15 156.708 171.928 156.984 171.628C157.272 171.316 157.5 170.926 157.668 170.458C157.848 169.978 157.938 169.402 157.938 168.73C157.938 167.782 157.686 167.014 157.182 166.426C156.678 165.838 155.922 165.544 154.914 165.544C154.674 165.544 154.344 165.568 153.924 165.616C153.504 165.664 153.036 165.82 152.52 166.084L154.122 160.486H159.576L159.216 161.476H154.896L153.852 165.004ZM173.457 165.994C173.709 165.994 173.997 165.97 174.321 165.922C174.657 165.862 174.969 165.748 175.257 165.58C175.557 165.4 175.803 165.148 175.995 164.824C176.199 164.5 176.301 164.074 176.301 163.546C176.301 163.222 176.253 162.916 176.157 162.628C176.073 162.328 175.935 162.064 175.743 161.836C175.563 161.596 175.329 161.41 175.041 161.278C174.753 161.134 174.411 161.062 174.015 161.062C173.763 161.062 173.523 161.092 173.295 161.152C173.067 161.212 172.863 161.326 172.683 161.494C172.503 161.65 172.353 161.872 172.233 162.16C172.113 162.448 172.029 162.814 171.981 163.258H170.379C170.391 162.934 170.457 162.598 170.577 162.25C170.709 161.89 170.919 161.566 171.207 161.278C171.495 160.978 171.873 160.738 172.341 160.558C172.809 160.366 173.397 160.27 174.105 160.27C174.753 160.27 175.311 160.366 175.779 160.558C176.259 160.738 176.649 160.984 176.949 161.296C177.261 161.596 177.489 161.95 177.633 162.358C177.777 162.766 177.849 163.192 177.849 163.636C177.849 164.26 177.681 164.77 177.345 165.166C177.009 165.55 176.499 165.886 175.815 166.174L175.617 166.246V166.372L175.815 166.408C176.211 166.468 176.565 166.6 176.877 166.804C177.189 166.996 177.453 167.236 177.669 167.524C177.897 167.8 178.071 168.112 178.191 168.46C178.311 168.796 178.371 169.132 178.371 169.468C178.371 169.948 178.275 170.416 178.083 170.872C177.903 171.328 177.627 171.736 177.255 172.096C176.883 172.444 176.415 172.726 175.851 172.942C175.299 173.158 174.651 173.266 173.907 173.266C173.379 173.278 172.881 173.206 172.413 173.05C171.945 172.894 171.531 172.678 171.171 172.402C170.823 172.114 170.541 171.784 170.325 171.412C170.121 171.04 170.019 170.65 170.019 170.242H171.819C171.831 170.53 171.891 170.812 171.999 171.088C172.119 171.364 172.275 171.604 172.467 171.808C172.671 172.012 172.911 172.18 173.187 172.312C173.463 172.432 173.775 172.492 174.123 172.492C174.843 172.492 175.425 172.252 175.869 171.772C176.325 171.292 176.553 170.548 176.553 169.54C176.553 169.324 176.529 169.06 176.481 168.748C176.433 168.436 176.307 168.136 176.103 167.848C175.911 167.548 175.605 167.296 175.185 167.092C174.765 166.888 174.189 166.786 173.457 166.786V165.994ZM189.275 162.394H187.763C187.691 161.974 187.493 161.65 187.169 161.422C186.845 161.182 186.455 161.062 185.999 161.062C185.399 161.062 184.907 161.2 184.523 161.476C184.139 161.752 183.839 162.142 183.623 162.646C183.407 163.138 183.257 163.732 183.173 164.428C183.101 165.124 183.065 165.892 183.065 166.732H183.137L183.353 166.318C183.557 165.91 183.881 165.556 184.325 165.256C184.781 164.956 185.381 164.806 186.125 164.806C186.569 164.806 187.013 164.89 187.457 165.058C187.913 165.214 188.321 165.46 188.681 165.796C189.041 166.132 189.335 166.558 189.563 167.074C189.791 167.59 189.905 168.208 189.905 168.928C189.905 169.528 189.803 170.092 189.599 170.62C189.395 171.148 189.113 171.61 188.753 172.006C188.393 172.402 187.961 172.714 187.457 172.942C186.953 173.17 186.395 173.284 185.783 173.284C184.895 173.284 184.169 173.086 183.605 172.69C183.053 172.294 182.621 171.784 182.309 171.16C182.009 170.536 181.805 169.84 181.697 169.072C181.589 168.292 181.535 167.518 181.535 166.75C181.535 165.934 181.613 165.136 181.769 164.356C181.937 163.576 182.201 162.886 182.561 162.286C182.933 161.674 183.407 161.188 183.983 160.828C184.559 160.456 185.261 160.27 186.089 160.27C186.485 160.27 186.863 160.312 187.223 160.396C187.583 160.48 187.907 160.606 188.195 160.774C188.483 160.942 188.723 161.164 188.915 161.44C189.107 161.704 189.227 162.022 189.275 162.394ZM183.245 169.054C183.245 169.666 183.323 170.188 183.479 170.62C183.635 171.052 183.833 171.412 184.073 171.7C184.313 171.976 184.583 172.18 184.883 172.312C185.195 172.432 185.495 172.492 185.783 172.492C186.011 172.492 186.263 172.45 186.539 172.366C186.827 172.282 187.097 172.114 187.349 171.862C187.601 171.61 187.811 171.262 187.979 170.818C188.147 170.362 188.231 169.774 188.231 169.054C188.231 168.394 188.153 167.842 187.997 167.398C187.853 166.954 187.661 166.6 187.421 166.336C187.181 166.072 186.917 165.886 186.629 165.778C186.341 165.67 186.065 165.616 185.801 165.616C185.501 165.616 185.201 165.682 184.901 165.814C184.601 165.934 184.325 166.132 184.073 166.408C183.833 166.672 183.635 167.026 183.479 167.47C183.323 167.902 183.245 168.43 183.245 169.054ZM195.206 171.16C195.278 171.58 195.476 171.91 195.8 172.15C196.124 172.378 196.514 172.492 196.97 172.492C197.57 172.492 198.062 172.354 198.446 172.078C198.83 171.802 199.13 171.418 199.346 170.926C199.562 170.422 199.706 169.822 199.778 169.126C199.862 168.43 199.904 167.662 199.904 166.822H199.832L199.67 167.236C199.562 167.512 199.4 167.746 199.184 167.938C198.98 168.118 198.746 168.268 198.482 168.388C198.218 168.508 197.936 168.592 197.636 168.64C197.348 168.688 197.06 168.712 196.772 168.712C196.364 168.712 195.938 168.634 195.494 168.478C195.062 168.322 194.666 168.076 194.306 167.74C193.946 167.404 193.646 166.984 193.406 166.48C193.178 165.964 193.064 165.346 193.064 164.626C193.064 164.038 193.166 163.48 193.37 162.952C193.574 162.424 193.856 161.962 194.216 161.566C194.576 161.17 195.008 160.858 195.512 160.63C196.016 160.39 196.574 160.27 197.186 160.27C198.074 160.27 198.794 160.468 199.346 160.864C199.91 161.26 200.342 161.77 200.642 162.394C200.954 163.018 201.164 163.72 201.272 164.5C201.38 165.28 201.434 166.048 201.434 166.804C201.434 167.62 201.35 168.418 201.182 169.198C201.026 169.978 200.762 170.674 200.39 171.286C200.03 171.886 199.562 172.372 198.986 172.744C198.41 173.104 197.708 173.284 196.88 173.284C196.484 173.284 196.106 173.242 195.746 173.158C195.386 173.074 195.062 172.948 194.774 172.78C194.486 172.612 194.246 172.396 194.054 172.132C193.862 171.856 193.742 171.532 193.694 171.16H195.206ZM199.724 164.5C199.724 163.888 199.646 163.366 199.49 162.934C199.334 162.502 199.136 162.148 198.896 161.872C198.656 161.584 198.38 161.38 198.068 161.26C197.768 161.128 197.474 161.062 197.186 161.062C196.958 161.062 196.7 161.104 196.412 161.188C196.136 161.272 195.872 161.44 195.62 161.692C195.368 161.944 195.158 162.298 194.99 162.754C194.822 163.198 194.738 163.78 194.738 164.5C194.738 165.172 194.81 165.73 194.954 166.174C195.11 166.606 195.308 166.954 195.548 167.218C195.788 167.482 196.046 167.668 196.322 167.776C196.61 167.884 196.892 167.938 197.168 167.938C197.468 167.938 197.768 167.878 198.068 167.758C198.368 167.626 198.638 167.428 198.878 167.164C199.13 166.888 199.334 166.534 199.49 166.102C199.646 165.658 199.724 165.124 199.724 164.5ZM207.437 166.3C207.017 166.252 206.651 166.132 206.339 165.94C206.039 165.748 205.781 165.52 205.565 165.256C205.361 164.98 205.205 164.686 205.097 164.374C205.001 164.062 204.953 163.75 204.953 163.438C204.953 163.102 205.019 162.748 205.151 162.376C205.283 162.004 205.499 161.662 205.799 161.35C206.099 161.038 206.489 160.78 206.969 160.576C207.449 160.372 208.043 160.27 208.751 160.27C209.447 160.27 210.035 160.372 210.515 160.576C211.007 160.78 211.403 161.038 211.703 161.35C212.003 161.662 212.219 162.004 212.351 162.376C212.495 162.748 212.567 163.102 212.567 163.438C212.567 163.75 212.513 164.062 212.405 164.374C212.309 164.686 212.153 164.98 211.937 165.256C211.733 165.52 211.475 165.748 211.163 165.94C210.863 166.132 210.509 166.252 210.101 166.3V166.39C210.545 166.414 210.941 166.528 211.289 166.732C211.649 166.924 211.949 167.176 212.189 167.488C212.441 167.788 212.633 168.124 212.765 168.496C212.897 168.868 212.963 169.24 212.963 169.612C212.963 170.056 212.873 170.5 212.693 170.944C212.525 171.376 212.267 171.766 211.919 172.114C211.571 172.462 211.133 172.744 210.605 172.96C210.077 173.176 209.459 173.284 208.751 173.284C208.043 173.284 207.425 173.176 206.897 172.96C206.381 172.744 205.949 172.462 205.601 172.114C205.265 171.766 205.013 171.376 204.845 170.944C204.677 170.5 204.593 170.056 204.593 169.612C204.593 169.24 204.659 168.868 204.791 168.496C204.923 168.124 205.109 167.788 205.349 167.488C205.589 167.176 205.883 166.924 206.231 166.732C206.591 166.528 206.993 166.414 207.437 166.39V166.3ZM208.751 166.084C209.051 166.084 209.339 166.036 209.615 165.94C209.903 165.832 210.155 165.676 210.371 165.472C210.599 165.256 210.779 164.998 210.911 164.698C211.043 164.386 211.109 164.02 211.109 163.6C211.109 163.096 211.025 162.682 210.857 162.358C210.701 162.022 210.503 161.764 210.263 161.584C210.023 161.392 209.765 161.26 209.489 161.188C209.225 161.104 208.979 161.062 208.751 161.062C208.523 161.062 208.277 161.104 208.013 161.188C207.749 161.26 207.497 161.392 207.257 161.584C207.029 161.764 206.837 162.022 206.681 162.358C206.525 162.682 206.447 163.096 206.447 163.6C206.447 164.02 206.513 164.386 206.645 164.698C206.777 164.998 206.951 165.256 207.167 165.472C207.383 165.676 207.629 165.832 207.905 165.94C208.181 166.036 208.463 166.084 208.751 166.084ZM208.751 166.714C208.391 166.714 208.061 166.786 207.761 166.93C207.461 167.062 207.203 167.254 206.987 167.506C206.783 167.746 206.621 168.034 206.501 168.37C206.393 168.694 206.339 169.048 206.339 169.432C206.339 170.368 206.555 171.112 206.987 171.664C207.431 172.216 208.019 172.492 208.751 172.492C209.507 172.492 210.107 172.216 210.551 171.664C210.995 171.112 211.217 170.368 211.217 169.432C211.217 169.048 211.157 168.694 211.037 168.37C210.929 168.034 210.767 167.746 210.551 167.506C210.335 167.254 210.071 167.062 209.759 166.93C209.459 166.786 209.123 166.714 208.751 166.714Z" fill="white"/>
<path fill-rule="evenodd" clip-rule="evenodd" d="M288.442 41.1938C285.59 43.655 281.891 45.1408 277.848 45.1408C268.827 45.1408 261.515 37.7433 261.515 28.618C261.515 19.4927 268.827 12.0951 277.848 12.0951C281.891 12.0951 285.59 13.5809 288.442 16.0421C291.294 13.5809 294.994 12.0951 299.037 12.0951C308.057 12.0951 315.37 19.4927 315.37 28.618C315.37 37.7433 308.057 45.1408 299.037 45.1408C294.994 45.1408 291.294 43.655 288.442 41.1938Z" fill="#ED0006"/>
<path fill-rule="evenodd" clip-rule="evenodd" d="M288.442 41.194C291.954 38.1634 294.181 33.6538 294.181 28.6181C294.181 23.5824 291.954 19.0728 288.442 16.0422C291.294 13.581 294.994 12.0952 299.037 12.0952C308.057 12.0952 315.37 19.4928 315.37 28.6181C315.37 37.7434 308.057 45.1409 299.037 45.1409C294.994 45.1409 291.294 43.6552 288.442 41.194Z" fill="#F9A000"/>
<path fill-rule="evenodd" clip-rule="evenodd" d="M288.442 41.194C291.954 38.1635 294.181 33.6539 294.181 28.6182C294.181 23.5825 291.954 19.0729 288.442 16.0423C284.931 19.0729 282.704 23.5825 282.704 28.6182C282.704 33.6539 284.931 38.1635 288.442 41.194Z" fill="#FF5E00"/>
<defs>
<linearGradient id="paint0_linear_68_1081" x1="0.673828" y1="98.8956" x2="327" y2="98.8956" gradientUnits="userSpaceOnUse">
<stop stop-color="#434343"/>
<stop offset="1"/>
</linearGradient>
</defs>
</svg>
