<svg width="22" height="16" viewBox="0 0 22 16" fill="none" xmlns="http://www.w3.org/2000/svg">
<path d="M18.8311 15.64H3.11773C2.29115 15.639 1.49871 15.3102 0.914234 14.7258C0.329757 14.1413 0.00097073 13.3488 0 12.5223V3.11773C0.00097073 2.29115 0.329757 1.49871 0.914234 0.914234C1.49871 0.329757 2.29115 0.00097073 3.11773 0H18.8311C19.6577 0.00097073 20.4501 0.329757 21.0346 0.914234C21.6191 1.49871 21.9478 2.29115 21.9488 3.11773V12.5223C21.9478 13.3488 21.6191 14.1413 21.0346 14.7258C20.4501 15.3102 19.6577 15.639 18.8311 15.64ZM3.11773 1.10038C2.58269 1.10038 2.06957 1.31292 1.69124 1.69124C1.31292 2.06957 1.10038 2.58269 1.10038 3.11773V12.5223C1.10038 13.0573 1.31292 13.5704 1.69124 13.9488C2.06957 14.3271 2.58269 14.5396 3.11773 14.5396H18.8311C19.3661 14.5396 19.8792 14.3271 20.2576 13.9488C20.6359 13.5704 20.8484 13.0573 20.8484 12.5223V3.11773C20.8484 2.58269 20.6359 2.06957 20.2576 1.69124C19.8792 1.31292 19.3661 1.10038 18.8311 1.10038H3.11773Z" fill="#796870"/>
<path d="M10.9743 10.0501C10.2956 10.0512 9.635 9.83098 9.09265 9.4229L0.528068 2.94535C0.467555 2.90289 0.416222 2.84866 0.377135 2.78591C0.338048 2.72316 0.312007 2.65317 0.30057 2.58013C0.289132 2.50709 0.292532 2.4325 0.310565 2.3608C0.328599 2.28911 0.360896 2.22178 0.405529 2.16285C0.450162 2.10391 0.506215 2.05458 0.570339 2.01779C0.634464 1.981 0.705345 1.95751 0.77875 1.94872C0.852155 1.93994 0.926577 1.94604 0.997573 1.96665C1.06857 1.98727 1.13468 2.02199 1.19196 2.06872L9.75655 8.5536C10.1083 8.81615 10.5354 8.95799 10.9743 8.95799C11.4132 8.95799 11.8403 8.81615 12.192 8.5536L20.7566 2.06872C20.8139 2.02199 20.88 1.98727 20.951 1.96665C21.022 1.94604 21.0964 1.93994 21.1698 1.94872C21.2432 1.95751 21.3141 1.981 21.3783 2.01779C21.4424 2.05458 21.4984 2.10391 21.5431 2.16285C21.5877 2.22178 21.62 2.28911 21.638 2.3608C21.6561 2.4325 21.6595 2.50709 21.648 2.58013C21.6366 2.65317 21.6105 2.72316 21.5715 2.78591C21.5324 2.84866 21.481 2.90289 21.4205 2.94535L12.8559 9.4229C12.3136 9.83098 11.653 10.0512 10.9743 10.0501Z" fill="#796870"/>
<path d="M0.766572 14.1068C0.654984 14.107 0.545984 14.0732 0.454035 14.01C0.362086 13.9468 0.291536 13.8571 0.251745 13.7528C0.211954 13.6486 0.204804 13.5347 0.231243 13.4263C0.257682 13.3179 0.316461 13.2201 0.399781 13.1458L7.14875 7.1268C7.2577 7.02952 7.40084 6.9795 7.54666 6.98776C7.69249 6.99601 7.82907 7.06186 7.92635 7.17081C8.02363 7.27976 8.07364 7.4229 8.06539 7.56873C8.05713 7.71456 7.99129 7.85113 7.88233 7.94841L1.13336 13.9675C1.03314 14.0587 0.902067 14.1085 0.766572 14.1068ZM21.1822 14.1068C21.0467 14.1085 20.9156 14.0587 20.8154 13.9675L14.0664 7.94841C13.9575 7.85113 13.8916 7.71456 13.8834 7.56873C13.8751 7.4229 13.9251 7.27976 14.0224 7.17081C14.1197 7.06186 14.2563 6.99601 14.4021 6.98776C14.5479 6.9795 14.6911 7.02952 14.8 7.1268L21.5453 13.1458C21.6286 13.2201 21.6874 13.3179 21.7139 13.4263C21.7403 13.5347 21.7332 13.6486 21.6934 13.7528C21.6536 13.8571 21.583 13.9468 21.4911 14.01C21.3991 14.0732 21.2901 14.107 21.1785 14.1068H21.1822Z" fill="#796870"/>
</svg>
