<svg width="20" height="18" viewBox="0 0 20 18" fill="none" xmlns="http://www.w3.org/2000/svg">
<path d="M9.38964 3.30745L10.2297 4.61275L11.071 3.30817C12.5308 1.04413 14.4865 0.668615 16.0259 1.26342C17.6308 1.88355 19 3.64001 19 6.09941C19 6.86524 18.5852 7.88332 17.7661 9.08744C16.9671 10.262 15.875 11.4825 14.7277 12.6259C13.5848 13.765 12.4111 14.8039 11.4636 15.6176C11.1233 15.9099 10.8156 16.1702 10.547 16.3974C10.4407 16.4873 10.3405 16.5721 10.2469 16.6515C10.2386 16.6586 10.2303 16.6656 10.222 16.6727C10.2088 16.6618 10.1954 16.6509 10.1821 16.6399C10.0453 16.5281 9.89785 16.4082 9.73886 16.279C9.49183 16.0783 9.21697 15.8549 8.91124 15.6037C7.91981 14.7888 6.6884 13.7491 5.48763 12.609C4.28224 11.4645 3.13369 10.2431 2.29333 9.06815C1.4297 7.86065 1 6.8498 1 6.09941C1 3.65687 2.44869 1.88537 4.18767 1.25438C5.87831 0.640929 7.94762 1.06694 9.38964 3.30745Z" stroke="#796870" stroke-width="2"/>
</svg>
