<svg width="24" height="24" viewBox="0 0 24 24" fill="none" xmlns="http://www.w3.org/2000/svg">
<path fill-rule="evenodd" clip-rule="evenodd" d="M11.3415 4.90495C11.7185 4.57506 12.2815 4.57506 12.6585 4.90496L18.6585 10.155C18.8755 10.3448 19 10.6192 19 10.9075V19C19 19.5523 18.5523 20 18 20H6C5.44772 20 5 19.5523 5 19V10.9075C5 10.6192 5.12448 10.3448 5.3415 10.155L11.3415 4.90495ZM13.9755 3.3998C12.8444 2.41011 11.1556 2.41011 10.0245 3.3998L4.02449 8.6498C3.37344 9.21947 3 10.0424 3 10.9075V19C3 20.6569 4.34315 22 6 22H18C19.6569 22 21 20.6569 21 19V10.9075C21 10.0424 20.6266 9.21947 19.9755 8.6498L13.9755 3.3998ZM8 15.9999C7.44772 15.9999 7 16.4477 7 16.9999C7 17.5522 7.44772 17.9999 8 17.9999H16C16.5523 17.9999 17 17.5522 17 16.9999C17 16.4477 16.5523 15.9999 16 15.9999H8Z" fill="#796870"/>
</svg>
