<svg width="25" height="24" viewBox="0 0 25 24" fill="none" xmlns="http://www.w3.org/2000/svg">
<path d="M17.0023 0H8.12971C6.16873 0 4.28807 0.778995 2.90145 2.16561C1.51483 3.55223 0.73584 5.43289 0.73584 7.39387L0.73584 16.2665C0.73584 18.2275 1.51483 20.1081 2.90145 21.4948C4.28807 22.8814 6.16873 23.6604 8.12971 23.6604H17.0023C18.9633 23.6604 20.844 22.8814 22.2306 21.4948C23.6172 20.1081 24.3962 18.2275 24.3962 16.2665V7.39387C24.3962 5.43289 23.6172 3.55223 22.2306 2.16561C20.844 0.778995 18.9633 0 17.0023 0ZM22.1781 16.2665C22.1781 19.1205 19.8564 21.4422 17.0023 21.4422H8.12971C5.27567 21.4422 2.954 19.1205 2.954 16.2665V7.39387C2.954 4.53983 5.27567 2.21816 8.12971 2.21816H17.0023C19.8564 2.21816 22.1781 4.53983 22.1781 7.39387V16.2665Z" fill="url(#paint0_linear_77_905)"/>
<path d="M12.566 5.91504C10.9972 5.91504 9.49267 6.53823 8.38337 7.64753C7.27407 8.75683 6.65088 10.2614 6.65088 11.8301C6.65088 13.3989 7.27407 14.9034 8.38337 16.0127C9.49267 17.122 10.9972 17.7452 12.566 17.7452C14.1348 17.7452 15.6393 17.122 16.7486 16.0127C17.8579 14.9034 18.4811 13.3989 18.4811 11.8301C18.4811 10.2614 17.8579 8.75683 16.7486 7.64753C15.6393 6.53823 14.1348 5.91504 12.566 5.91504ZM12.566 15.5271C11.5858 15.5259 10.6462 15.136 9.95314 14.443C9.26009 13.7499 8.87021 12.8103 8.86904 11.8301C8.86904 9.7909 10.5282 8.1332 12.566 8.1332C14.6037 8.1332 16.2629 9.7909 16.2629 11.8301C16.2629 13.8679 14.6037 15.5271 12.566 15.5271Z" fill="url(#paint1_linear_77_905)"/>
<path d="M18.9249 6.2596C19.3602 6.2596 19.7131 5.90672 19.7131 5.47141C19.7131 5.03611 19.3602 4.68323 18.9249 4.68323C18.4896 4.68323 18.1367 5.03611 18.1367 5.47141C18.1367 5.90672 18.4896 6.2596 18.9249 6.2596Z" fill="url(#paint2_linear_77_905)"/>
<defs>
<linearGradient id="paint0_linear_77_905" x1="2.90076" y1="21.4955" x2="22.2313" y2="2.16492" gradientUnits="userSpaceOnUse">
<stop stop-color="#FFC107"/>
<stop offset="0.507" stop-color="#F44336"/>
<stop offset="0.99" stop-color="#9C27B0"/>
</linearGradient>
<linearGradient id="paint1_linear_77_905" x1="8.384" y1="16.0121" x2="16.7479" y2="7.64816" gradientUnits="userSpaceOnUse">
<stop stop-color="#FFC107"/>
<stop offset="0.507" stop-color="#F44336"/>
<stop offset="0.99" stop-color="#9C27B0"/>
</linearGradient>
<linearGradient id="paint2_linear_77_905" x1="18.3674" y1="6.02891" x2="19.4824" y2="4.91392" gradientUnits="userSpaceOnUse">
<stop stop-color="#FFC107"/>
<stop offset="0.507" stop-color="#F44336"/>
<stop offset="0.99" stop-color="#9C27B0"/>
</linearGradient>
</defs>
</svg>
