<svg width="21" height="14" viewBox="0 0 21 14" fill="none" xmlns="http://www.w3.org/2000/svg">
<path d="M19.2254 4.21787V1.6383C19.2254 0.732766 18.4977 0 17.5986 0H3.40141C2.50225 0 1.77465 0.732766 1.77465 1.6383V4.21787C0.763098 4.42638 0 5.32596 0 6.40426V13.5532C0 13.7974 0.201126 14 0.443661 14H20.5563C20.7989 14 21 13.7974 21 13.5532V6.40426C21 5.32596 20.2369 4.42043 19.2254 4.21787ZM3.40141 0.893617H17.5986C18.0068 0.893617 18.338 1.22723 18.338 1.6383V4.21787C17.3265 4.42638 16.5634 5.32596 16.5634 6.40426V8.34042H4.43662V6.40426C4.43662 5.32596 3.67352 4.42043 2.66197 4.21787V1.6383C2.66197 1.22723 2.99324 0.893617 3.40141 0.893617ZM4.43662 9.23404H16.5634V9.97872C16.5634 10.3898 16.2321 10.7234 15.8239 10.7234H5.17606C4.76789 10.7234 4.43662 10.3898 4.43662 9.97872V9.23404ZM20.1127 13.1064H0.887323V6.40426C0.887323 5.66553 1.48479 5.06383 2.21831 5.06383C2.95183 5.06383 3.5493 5.66553 3.5493 6.40426V9.97872C3.5493 10.8843 4.2769 11.617 5.17606 11.617H15.8239C16.7231 11.617 17.4507 10.8843 17.4507 9.97872V6.40426C17.4507 5.66553 18.0482 5.06383 18.7817 5.06383C19.5152 5.06383 20.1127 5.66553 20.1127 6.40426V13.1064Z" fill="#E0BC66"/>
</svg>
