<?xml version="1.0" standalone="no"?>
<!DOCTYPE svg PUBLIC "-//W3C//DTD SVG 20010904//EN"
 "http://www.w3.org/TR/2001/REC-SVG-20010904/DTD/svg10.dtd">
<svg version="1.0" xmlns="http://www.w3.org/2000/svg"
 width="1667.000000pt" height="1007.000000pt" viewBox="0 0 1667.000000 1007.000000"
 preserveAspectRatio="xMidYMid meet">
<metadata>
Created by potrace 1.16, written by Peter Selinger 2001-2019
</metadata>
<g transform="translate(0.000000,1007.000000) scale(0.100000,-0.100000)"
fill="#000000" stroke="none">
<path d="M13130 8881 c-67 -8 -182 -34 -235 -53 -85 -31 -248 -108 -253 -120
-2 -5 -8 -8 -14 -8 -21 0 -146 -99 -238 -189 -121 -119 -220 -264 -283 -416
-46 -111 -54 -136 -82 -256 -56 -240 -11 -564 112 -814 88 -179 143 -244 517
-619 171 -171 544 -546 829 -834 l518 -521 167 167 c92 92 195 197 230 233
l62 66 -815 819 c-449 450 -835 846 -859 879 -91 128 -116 209 -116 380 0 138
9 181 55 279 25 54 129 196 143 196 4 0 21 13 37 28 38 36 144 90 215 110 36
10 100 15 185 16 108 0 141 -3 192 -21 189 -66 334 -205 401 -386 25 -66 27
-84 27 -222 0 -101 -5 -163 -14 -190 -19 -55 -63 -147 -78 -163 -7 -7 -13 -18
-13 -22 0 -5 -62 -72 -138 -149 l-139 -140 231 -230 231 -231 103 101 c56 56
102 103 102 105 0 3 19 23 43 47 23 23 56 60 72 82 16 22 32 42 36 45 3 3 14
19 23 35 9 17 25 44 34 60 90 149 140 297 168 485 21 148 18 236 -17 425 -26
139 -109 334 -196 462 -114 166 -274 314 -438 406 -46 26 -67 36 -150 72 -54
24 -152 54 -227 70 -83 18 -331 27 -428 16z"/>
<path d="M12363 5740 c-123 -125 -223 -234 -223 -241 0 -7 104 -116 230 -243
127 -126 230 -231 230 -233 0 -1 19 -21 41 -43 l42 -40 454 2 455 3 -27 30
c-52 56 -975 995 -978 994 -1 -1 -102 -104 -224 -229z"/>
<path d="M11115 5359 c-60 -4 -121 -10 -135 -14 -14 -3 -45 -11 -70 -17 -107
-24 -367 -144 -410 -188 -3 -3 -23 -18 -45 -35 -49 -36 -50 -37 -121 -105
l-57 -55 948 -3 c522 -1 951 0 954 3 5 5 -40 50 -130 131 -88 79 -228 159
-364 209 -188 70 -339 89 -570 74z"/>
<path d="M7600 5205 l0 -155 150 0 150 0 0 155 0 155 -150 0 -150 0 0 -155z"/>
<path d="M8150 5205 l0 -155 150 0 150 0 0 155 0 155 -150 0 -150 0 0 -155z"/>
<path d="M15135 5348 c-83 -16 -265 -77 -343 -115 -63 -30 -196 -114 -212
-132 -3 -3 -23 -19 -45 -36 -22 -16 -60 -50 -84 -75 l-45 -45 944 -3 c519 -1
946 0 949 4 10 9 -150 153 -209 188 -19 11 -37 23 -40 27 -3 4 -32 22 -65 39
-33 17 -64 35 -70 39 -5 4 -26 13 -45 20 -19 7 -44 17 -55 21 -71 28 -116 40
-273 70 -65 12 -338 11 -407 -2z"/>
<path d="M790 5195 l0 -155 155 0 155 0 0 155 0 155 -155 0 -155 0 0 -155z"/>
<path d="M4280 4550 l0 -770 -454 0 -454 0 -4 243 c-5 232 -6 245 -32 317 -36
99 -44 116 -85 175 -73 107 -202 197 -330 230 -74 19 -233 20 -303 1 -76 -20
-141 -47 -203 -85 -47 -29 -185 -167 -185 -186 0 -7 -4 -15 -8 -17 -11 -4 -57
-113 -73 -173 -18 -67 -16 -264 4 -335 18 -67 77 -200 88 -200 4 0 10 -9 14
-20 7 -22 141 -160 155 -160 5 0 15 -6 22 -13 7 -7 46 -27 86 -46 95 -43 213
-61 405 -61 126 0 147 -2 147 -15 0 -24 -39 -97 -69 -128 -37 -41 -123 -78
-192 -84 l-59 -6 0 -118 0 -119 63 0 c60 0 226 37 277 63 45 22 124 80 153
111 55 62 108 174 122 259 l6 37 2312 0 c2333 0 2421 1 2542 36 82 23 197 95
264 164 143 150 218 425 166 611 -33 116 -40 136 -73 197 -75 142 -197 245
-354 299 -63 21 -91 25 -198 25 -134 1 -200 -12 -294 -56 -116 -55 -233 -167
-278 -266 -67 -149 -81 -214 -75 -355 5 -117 13 -158 46 -245 12 -30 21 -60
21 -67 0 -10 -133 -13 -650 -13 l-650 0 0 78 c0 208 -67 466 -157 607 -56 87
-102 136 -173 184 -130 86 -219 111 -405 111 -141 0 -188 -8 -310 -54 -60 -23
-200 -98 -215 -116 -3 -3 -23 -19 -45 -35 -47 -34 -226 -212 -250 -249 -10
-14 -24 -26 -33 -26 -13 0 -14 18 -8 143 4 78 11 262 16 409 5 147 12 317 16
378 l7 110 -157 0 -156 0 0 -770z m3876 -76 c142 -68 217 -248 185 -440 -7
-43 -16 -84 -21 -93 -4 -9 -13 -27 -19 -41 -52 -111 -199 -179 -330 -152 -32
7 -71 19 -87 27 -48 24 -121 106 -151 170 -26 56 -28 69 -28 190 0 124 1 133
29 189 39 77 68 110 124 143 82 48 206 51 298 7z m-2666 2 c77 -18 125 -47
185 -109 55 -56 106 -150 131 -240 8 -28 17 -118 21 -199 l6 -148 -657 0
c-361 0 -656 2 -656 5 0 9 70 134 108 195 134 213 327 386 516 462 110 45 246
58 346 34z m-2592 -25 c54 -28 98 -75 129 -139 27 -56 27 -60 31 -294 l4 -238
-191 0 c-185 0 -192 1 -238 26 -116 62 -183 185 -183 333 0 155 62 263 181
315 53 23 220 21 267 -3z"/>
<path d="M20 4340 c0 -535 14 -645 109 -835 52 -105 93 -160 205 -270 109
-107 201 -169 301 -202 147 -49 170 -53 301 -53 110 0 144 4 219 26 82 24 193
70 205 85 3 3 20 14 39 24 45 23 243 221 266 266 10 19 21 36 26 39 19 12 98
192 117 265 29 113 32 164 32 611 l0 464 -155 0 -155 0 0 -427 c0 -443 -6
-520 -45 -638 -69 -205 -223 -360 -403 -405 -300 -76 -575 81 -692 395 -44
119 -45 120 -48 608 l-4 467 -159 0 -159 0 0 -420z"/>
</g>
</svg>
