<svg width="21" height="24" viewBox="0 0 21 24" fill="none" xmlns="http://www.w3.org/2000/svg">
<path d="M20.6491 10.0019V5.92943C18.7419 5.92943 17.2864 5.42038 16.3472 4.43094C15.3832 3.30173 14.8431 1.87171 14.82 0.38717V0.0932076L10.9698 0V16.5408C10.8377 17.2624 10.4874 17.9262 9.96614 18.4425C9.44487 18.9588 8.77773 19.3027 8.05481 19.4278C7.33189 19.5529 6.58798 19.4532 5.92352 19.1421C5.25906 18.8311 4.70604 18.3236 4.33911 17.6883C3.97218 17.053 3.80902 16.3204 3.87165 15.5894C3.93429 14.8584 4.21969 14.1642 4.68934 13.6006C5.159 13.0369 5.79028 12.6309 6.49797 12.4374C7.20567 12.2439 7.95569 12.2722 8.6468 12.5185V8.5751C8.24385 8.50907 7.83625 8.4755 7.42793 8.47472C5.95882 8.47472 4.52271 8.91036 3.30119 9.72655C2.07968 10.5427 1.12762 11.7028 0.56542 13.0601C0.00321828 14.4174 -0.143879 15.9109 0.142729 17.3518C0.429337 18.7926 1.13678 20.1162 2.17559 21.155C3.21441 22.1938 4.53793 22.9012 5.97881 23.1878C7.41969 23.4744 8.9132 23.3274 10.2705 22.7652C11.6277 22.2029 12.7878 21.2509 13.604 20.0294C14.4202 18.8079 14.8559 17.3717 14.8559 15.9026C14.8551 15.5982 14.8359 15.2942 14.7985 14.9921V8.4317C16.5492 9.52505 18.5861 10.0717 20.6491 10.0019Z" fill="black"/>
</svg>
