<svg width="24" height="24" viewBox="0 0 24 24" fill="none" xmlns="http://www.w3.org/2000/svg">
<g clip-path="url(#clip0_77_902)">
<path d="M12.1728 0H12.1668C5.64398 0 0.339615 5.30584 0.339615 11.8302C0.335565 14.3219 1.12432 16.7504 2.59179 18.7642L1.11745 23.1591L5.66468 21.7054C7.59355 22.9851 9.858 23.6653 12.1728 23.6604C18.6956 23.6604 24 18.3531 24 11.8302C24 5.30732 18.6956 0 12.1728 0Z" fill="#4CAF50"/>
<path d="M19.0564 16.7057C18.771 17.5116 17.6382 18.18 16.7347 18.3752C16.1166 18.5068 15.3092 18.6118 12.5912 17.485C9.11458 16.0447 6.87572 12.5119 6.70122 12.2827C6.53412 12.0535 5.29639 10.412 5.29639 8.71441C5.29639 7.01678 6.15851 6.19014 6.50602 5.83524C6.79143 5.54392 7.26316 5.41083 7.71566 5.41083C7.86206 5.41083 7.99367 5.41822 8.11197 5.42414C8.45948 5.43892 8.63398 5.45963 8.86319 6.00825C9.14859 6.69588 9.84362 8.39351 9.92643 8.56801C10.0107 8.74251 10.095 8.97911 9.97671 9.20832C9.8658 9.44492 9.7682 9.54992 9.5937 9.75103C9.41921 9.95214 9.25358 10.1059 9.07909 10.3218C8.91938 10.5096 8.73897 10.7108 8.94008 11.0583C9.1412 11.3984 9.83622 12.5326 10.8595 13.4435C12.1801 14.6192 13.2507 14.9948 13.6337 15.1545C13.9191 15.2728 14.2592 15.2447 14.4677 15.0229C14.7324 14.7375 15.0592 14.2642 15.392 13.7984C15.6286 13.4642 15.9273 13.4228 16.2408 13.5411C16.5602 13.652 18.2504 14.4875 18.598 14.6606C18.9455 14.8351 19.1747 14.9179 19.259 15.0643C19.3418 15.2107 19.3418 15.8983 19.0564 16.7057Z" fill="#FAFAFA"/>
</g>
<defs>
<clipPath id="clip0_77_902">
<rect width="23.6604" height="23.6604" fill="white" transform="translate(0.3396)"/>
</clipPath>
</defs>
</svg>
